<svg width="921" height="691" viewBox="0 0 921 691" fill="none" xmlns="http://www.w3.org/2000/svg">
<path d="M146.266 608.368L117.761 286.437C117.035 278.219 119.542 270.042 124.749 263.645L256.349 101.922C259.663 97.8479 263.938 94.6618 268.79 92.6516C273.641 90.6408 278.917 89.8692 284.14 90.4058L686.634 131.797C692.212 132.37 697.537 134.414 702.067 137.722C706.597 141.029 710.166 145.481 712.411 150.621L805.086 362.758C807.521 368.333 808.298 374.493 807.326 380.499L770.445 608.397L146.266 608.368Z" fill="#F76C5E"/>
<path opacity="0.9" d="M146.266 608.368L117.761 286.437C117.035 278.219 119.542 270.042 124.749 263.645L256.349 101.922C259.663 97.8479 263.938 94.6618 268.79 92.6516C273.641 90.6408 278.917 89.8692 284.14 90.4058L686.634 131.797C692.212 132.37 697.537 134.414 702.067 137.722C706.597 141.029 710.166 145.481 712.411 150.621L805.086 362.758C807.521 368.333 808.298 374.493 807.326 380.499L770.445 608.397L146.266 608.368Z" fill="#FDDBD8"/>
<path d="M777.9 608.875H139.762C139.701 608.875 139.641 608.863 139.586 608.84C139.53 608.817 139.479 608.783 139.436 608.742C139.393 608.696 139.359 608.644 139.336 608.593C139.313 608.535 139.301 608.472 139.301 608.414C139.301 608.351 139.313 608.293 139.336 608.236C139.359 608.184 139.393 608.132 139.436 608.086C139.479 608.045 139.53 608.011 139.586 607.988C139.641 607.965 139.701 607.953 139.762 607.953H777.957C778.021 607.953 778.078 607.965 778.136 607.988C778.193 608.011 778.239 608.045 778.285 608.086C778.326 608.132 778.36 608.178 778.383 608.236C778.406 608.293 778.418 608.351 778.418 608.414C778.418 608.477 778.4 608.541 778.372 608.604C778.349 608.662 778.308 608.713 778.257 608.76C778.211 608.8 778.153 608.834 778.09 608.852C778.032 608.875 777.963 608.88 777.9 608.875Z" fill="#F76C5E"/>
<g opacity="0.6">
<path opacity="0.6" d="M777.9 608.875H139.762C139.701 608.875 139.641 608.863 139.586 608.84C139.53 608.817 139.479 608.783 139.436 608.742C139.393 608.696 139.359 608.644 139.336 608.593C139.313 608.535 139.301 608.472 139.301 608.414C139.301 608.351 139.313 608.293 139.336 608.236C139.359 608.184 139.393 608.132 139.436 608.086C139.479 608.045 139.53 608.011 139.586 607.988C139.641 607.965 139.701 607.953 139.762 607.953H777.957C778.021 607.953 778.078 607.965 778.136 607.988C778.193 608.011 778.239 608.045 778.285 608.086C778.326 608.132 778.36 608.178 778.383 608.236C778.406 608.293 778.418 608.351 778.418 608.414C778.418 608.477 778.4 608.541 778.372 608.604C778.349 608.662 778.308 608.713 778.257 608.76C778.211 608.8 778.153 608.834 778.09 608.852C778.032 608.875 777.963 608.88 777.9 608.875Z" fill="#FDDBD8"/>
</g>
<path d="M399.507 438.232H172.653V578.741H399.507V438.232Z" fill="#586BA4"/>
<path opacity="0.5" d="M399.507 438.232H172.653V578.741H399.507V438.232Z" fill="#FDDBD8"/>
<path d="M392.726 444.659H179.077V572.315H392.726V444.659Z" fill="#586BA4"/>
<path opacity="0.9" d="M393.089 444.659H179.083V572.315H393.089V444.659Z" fill="#FDDBD8"/>
<path d="M415.492 438.232H399.507V578.741H415.492V438.232Z" fill="#586BA4"/>
<path opacity="0.2" d="M415.492 438.232H399.507V578.741H415.492V438.232Z" fill="#FDDBD8"/>
<path d="M393.089 505.058H179.083V511.91H393.089V505.058Z" fill="#586BA4"/>
<path opacity="0.5" d="M393.089 505.058H179.083V511.91H393.089V505.058Z" fill="#FDDBD8"/>
<path d="M301.564 505.063L293.126 458.548H272.587V449.329H223.302V505.063H241.072H268.834H301.564Z" fill="#324376"/>
<path opacity="0.3" d="M301.72 505.063L293.281 458.548H272.743V449.329H223.452V505.063H241.227H268.99H301.72Z" fill="#FDDBD8"/>
<path d="M236.72 449.329H223.302V505.063H236.72V449.329Z" fill="#324376"/>
<path d="M248.63 455.703H241.072V505.058H248.63V455.703Z" fill="#324376"/>
<path d="M271.632 505.063H260.43L253.977 458.548H265.173L271.632 505.063Z" fill="#324376"/>
<path d="M215.681 572.321H256.556L248.117 525.805H208.969L215.681 572.321Z" fill="#324376"/>
<path opacity="0.3" d="M215.836 572.321H256.712L248.267 525.805H209.125L215.836 572.321Z" fill="#FDDBD8"/>
<path d="M226.618 572.321H215.422L208.969 525.805H220.165L226.618 572.321Z" fill="#324376"/>
<path d="M340.574 557.862V546.587H329.091V534.897H280.571V546.587V557.862V572.321H349.358V557.862H340.574Z" fill="#324376"/>
<path opacity="0.3" d="M340.73 557.862V546.587H329.246V534.903H280.727V546.587V557.862V572.321H349.514V557.862H340.73Z" fill="#FDDBD8"/>
<path d="M366.368 465.072V459.907H326.431V505.063H350.843H379.187V465.072H366.368Z" fill="#324376"/>
<path opacity="0.3" d="M366.518 465.072V459.907H326.587V505.063H350.993H379.343V465.072H366.518Z" fill="#FDDBD8"/>
<path d="M337.305 459.907H326.431V505.063H337.305V459.907Z" fill="#324376"/>
<path d="M361.343 465.072H350.901V505.063H361.343V465.072Z" fill="#324376"/>
<path d="M329.091 544.64H280.571V546.587H329.091V544.64Z" fill="#324376"/>
<path d="M340.574 555.91H280.571V557.856H340.574V555.91Z" fill="#324376"/>
<path d="M349.358 570.369H280.571V572.315H349.358V570.369Z" fill="#324376"/>
<path opacity="0.2" d="M236.72 449.49H223.302V505.225H236.72V449.49Z" fill="#FDDBD8"/>
<path opacity="0.2" d="M248.63 455.864H241.072V505.219H248.63V455.864Z" fill="#FDDBD8"/>
<path opacity="0.2" d="M271.632 505.225H260.43L253.977 458.709H265.173L271.632 505.225Z" fill="#FDDBD8"/>
<path opacity="0.2" d="M226.618 572.482H215.422L208.969 525.966H220.165L226.618 572.482Z" fill="#FDDBD8"/>
<path opacity="0.2" d="M337.305 460.068H326.431V505.225H337.305V460.068Z" fill="#FDDBD8"/>
<path opacity="0.2" d="M361.343 465.233H350.901V505.225H361.343V465.233Z" fill="#FDDBD8"/>
<path opacity="0.2" d="M329.091 544.807H280.571V546.754H329.091V544.807Z" fill="#FDDBD8"/>
<path opacity="0.2" d="M340.574 556.076H280.571V558.023H340.574V556.076Z" fill="#FDDBD8"/>
<path opacity="0.2" d="M349.358 570.53H280.571V572.476H349.358V570.53Z" fill="#FDDBD8"/>
<path d="M411.676 578.747L414.139 606.134C414.186 606.37 414.18 606.606 414.124 606.842C414.067 607.072 413.96 607.285 413.811 607.47C413.661 607.66 413.473 607.809 413.26 607.913C413.046 608.017 412.812 608.074 412.574 608.08C412.24 608.074 411.915 607.971 411.643 607.775C411.372 607.579 411.166 607.308 411.054 606.992L403.887 578.776L411.676 578.747Z" fill="#586BA4"/>
<path opacity="0.5" d="M411.676 578.747L414.139 606.134C414.186 606.37 414.18 606.606 414.124 606.842C414.067 607.072 413.96 607.285 413.811 607.47C413.661 607.66 413.473 607.809 413.26 607.913C413.046 608.017 412.812 608.074 412.574 608.08C412.24 608.074 411.915 607.971 411.643 607.775C411.372 607.579 411.166 607.308 411.054 606.992L403.887 578.776L411.676 578.747Z" fill="#FDDBD8"/>
<path d="M410.772 594.692L407.784 593.984L403.939 578.793H411.722L414.191 606.18C414.256 606.543 414.197 606.917 414.026 607.245C413.854 607.573 413.577 607.832 413.241 607.982L410.772 594.692Z" fill="#586BA4"/>
<path d="M383.729 578.747L386.193 606.134C386.239 606.37 386.233 606.606 386.176 606.842C386.119 607.072 386.013 607.285 385.863 607.47C385.714 607.66 385.526 607.809 385.312 607.913C385.099 608.017 384.865 608.074 384.627 608.08C384.292 608.074 383.967 607.971 383.696 607.775C383.423 607.579 383.218 607.308 383.107 606.992L375.941 578.776L383.729 578.747Z" fill="#586BA4"/>
<path opacity="0.5" d="M383.729 578.747L386.193 606.134C386.239 606.37 386.233 606.606 386.176 606.842C386.119 607.072 386.013 607.285 385.863 607.47C385.714 607.66 385.526 607.809 385.312 607.913C385.099 608.017 384.865 608.074 384.627 608.08C384.292 608.074 383.967 607.971 383.696 607.775C383.423 607.579 383.218 607.308 383.107 606.992L375.941 578.776L383.729 578.747Z" fill="#FDDBD8"/>
<path d="M381.121 581.782L376.654 580.924L375.9 578.741H383.683L386.147 606.128C386.212 606.491 386.155 606.865 385.982 607.193C385.81 607.521 385.533 607.781 385.197 607.93L381.121 581.782Z" fill="#586BA4"/>
<path d="M214.558 578.747L212.089 606.134C212.044 606.37 212.05 606.606 212.108 606.842C212.165 607.072 212.273 607.285 212.422 607.475C212.572 607.66 212.76 607.809 212.974 607.913C213.188 608.017 213.423 608.074 213.66 608.08C213.995 608.074 214.32 607.971 214.591 607.775C214.863 607.579 215.068 607.308 215.18 606.992L222.347 578.776L214.558 578.747Z" fill="#586BA4"/>
<path opacity="0.5" d="M214.558 578.747L212.089 606.134C212.044 606.37 212.05 606.606 212.108 606.842C212.165 607.072 212.273 607.285 212.422 607.475C212.572 607.66 212.76 607.809 212.974 607.913C213.188 608.017 213.423 608.074 213.66 608.08C213.995 608.074 214.32 607.971 214.591 607.775C214.863 607.579 215.068 607.308 215.18 606.992L222.347 578.776L214.558 578.747Z" fill="#FDDBD8"/>
<path d="M215.928 593.316L213.275 592.653L214.558 578.747H222.341L215.174 606.963C215.063 607.28 214.857 607.55 214.585 607.746C214.313 607.942 213.989 608.045 213.655 608.051H213.557L215.928 593.316Z" fill="#586BA4"/>
<path d="M185.852 578.747L183.388 606.134C183.342 606.37 183.347 606.606 183.404 606.842C183.461 607.072 183.568 607.285 183.717 607.47C183.867 607.66 184.054 607.809 184.268 607.913C184.482 608.017 184.716 608.074 184.954 608.08C185.288 608.074 185.613 607.971 185.885 607.775C186.157 607.579 186.362 607.308 186.474 606.992L193.64 578.776L185.852 578.747Z" fill="#586BA4"/>
<path opacity="0.5" d="M185.852 578.747L183.388 606.134C183.342 606.37 183.347 606.606 183.404 606.842C183.461 607.072 183.568 607.285 183.717 607.47C183.867 607.66 184.054 607.809 184.268 607.913C184.482 608.017 184.716 608.074 184.954 608.08C185.288 608.074 185.613 607.971 185.885 607.775C186.157 607.579 186.362 607.308 186.474 606.992L193.64 578.776L185.852 578.747Z" fill="#FDDBD8"/>
<path d="M188.886 581.119L185.472 580.503L185.852 578.747H193.634L186.468 606.963C186.357 607.28 186.151 607.55 185.88 607.746C185.607 607.942 185.282 608.045 184.948 608.051H184.856L188.886 581.119Z" fill="#586BA4"/>
<path opacity="0.2" d="M410.772 594.617L407.784 593.909L403.939 578.712H411.722L414.191 606.099C414.256 606.462 414.197 606.836 414.026 607.164C413.854 607.493 413.577 607.752 413.241 607.901L410.772 594.617Z" fill="#FDDBD8"/>
<path opacity="0.2" d="M381.121 581.707L376.654 580.849L375.9 578.666H383.683L386.147 606.053C386.212 606.416 386.155 606.79 385.982 607.118C385.81 607.447 385.533 607.706 385.197 607.855L381.121 581.707Z" fill="#FDDBD8"/>
<path opacity="0.2" d="M215.928 593.241L213.275 592.579L214.558 578.672H222.341L215.174 606.928C215.063 607.245 214.857 607.516 214.585 607.711C214.313 607.907 213.989 608.011 213.655 608.017H213.557L215.928 593.241Z" fill="#FDDBD8"/>
<path opacity="0.2" d="M188.886 581.045L185.472 580.423L185.852 578.695H193.634L186.468 606.928C186.357 607.245 186.151 607.516 185.88 607.711C185.607 607.907 185.282 608.011 184.948 608.017H184.856L188.886 581.045Z" fill="#FDDBD8"/>
<path d="M491.63 162.782C491.628 155.535 488.955 148.544 484.123 143.145C479.291 137.746 472.639 134.319 465.439 133.518V133.328H462.187C454.378 133.328 446.889 136.432 441.367 141.956C435.845 147.479 432.743 154.971 432.743 162.782C432.743 170.594 435.845 178.086 441.367 183.61C446.889 189.133 454.378 192.236 462.187 192.236H465.439V192.046C472.639 191.246 479.291 187.818 484.123 182.419C488.955 177.02 491.628 170.029 491.63 162.782Z" fill="#324376"/>
<path opacity="0.4" d="M491.63 162.782C491.628 155.535 488.955 148.544 484.123 143.145C479.291 137.746 472.639 134.319 465.439 133.518V133.328H462.187C454.378 133.328 446.889 136.432 441.367 141.956C435.845 147.479 432.743 154.971 432.743 162.782C432.743 170.594 435.845 178.086 441.367 183.61C446.889 189.133 454.378 192.236 462.187 192.236H465.439V192.046C472.639 191.246 479.291 187.818 484.123 182.419C488.955 177.02 491.628 170.029 491.63 162.782Z" fill="#FDDBD8"/>
<path d="M465.439 192.236C481.7 192.236 494.882 179.049 494.882 162.782C494.882 146.516 481.7 133.328 465.439 133.328C449.177 133.328 435.996 146.516 435.996 162.782C435.996 179.049 449.177 192.236 465.439 192.236Z" fill="#324376"/>
<path opacity="0.2" d="M465.439 192.236C481.7 192.236 494.882 179.049 494.882 162.782C494.882 146.516 481.7 133.328 465.439 133.328C449.177 133.328 435.996 146.516 435.996 162.782C435.996 179.049 449.177 192.236 465.439 192.236Z" fill="#FDDBD8"/>
<path d="M465.439 188.983C479.904 188.983 491.63 177.252 491.63 162.782C491.63 148.312 479.904 136.582 465.439 136.582C450.974 136.582 439.248 148.312 439.248 162.782C439.248 177.252 450.974 188.983 465.439 188.983Z" fill="#FDDBD8"/>
<path d="M465.439 136.582C464.96 136.573 464.482 136.594 464.005 136.645C470.684 137.017 476.967 139.932 481.564 144.793C486.16 149.654 488.722 156.091 488.722 162.782C488.722 169.474 486.16 175.911 481.564 180.772C476.967 185.633 470.684 188.548 464.005 188.919C464.46 188.919 464.915 188.983 465.439 188.983C472.385 188.983 479.047 186.222 483.958 181.309C488.87 176.395 491.63 169.731 491.63 162.782C491.63 155.834 488.87 149.17 483.958 144.256C479.047 139.342 472.385 136.582 465.439 136.582Z" fill="#324376"/>
<path opacity="0.4" d="M465.439 136.582C464.96 136.573 464.482 136.594 464.005 136.645C470.684 137.017 476.967 139.932 481.564 144.793C486.16 149.654 488.722 156.091 488.722 162.782C488.722 169.474 486.16 175.911 481.564 180.772C476.967 185.633 470.684 188.548 464.005 188.919C464.46 188.919 464.915 188.983 465.439 188.983C472.385 188.983 479.047 186.222 483.958 181.309C488.87 176.395 491.63 169.731 491.63 162.782C491.63 155.834 488.87 149.17 483.958 144.256C479.047 139.342 472.385 136.582 465.439 136.582Z" fill="#FDDBD8"/>
<path d="M465.681 164.798L456.971 147.523C456.89 147.365 456.841 147.192 456.826 147.015C456.811 146.838 456.832 146.66 456.886 146.49C456.94 146.321 457.027 146.164 457.142 146.029C457.257 145.893 457.397 145.781 457.556 145.7C457.713 145.619 457.886 145.57 458.063 145.555C458.24 145.54 458.418 145.561 458.587 145.615C458.756 145.669 458.914 145.757 459.049 145.871C459.185 145.986 459.296 146.127 459.378 146.285L466.861 161.176L476.807 156.298C476.971 156.211 477.151 156.159 477.335 156.143C477.519 156.127 477.705 156.15 477.881 156.209C478.057 156.267 478.219 156.361 478.357 156.484C478.495 156.608 478.607 156.759 478.685 156.926C478.763 157.094 478.807 157.276 478.812 157.462C478.818 157.647 478.786 157.831 478.717 158.004C478.649 158.176 478.548 158.333 478.417 158.464C478.286 158.596 478.13 158.7 477.959 158.769L465.681 164.798Z" fill="#586BA4"/>
<path opacity="0.5" d="M487.859 176.24C490.259 172.266 491.56 167.726 491.629 163.084C491.698 158.442 490.531 153.865 488.25 149.822C485.969 145.779 482.654 142.416 478.646 140.076C474.637 137.736 470.08 136.505 465.439 136.507C464.719 136.507 464.006 136.57 463.292 136.57L487.859 176.24Z" fill="#FDDBD8"/>
<path opacity="0.5" d="M459.349 137.296C458.089 137.6 456.851 137.985 455.642 138.448L482.748 182.401C483.803 181.464 484.78 180.443 485.672 179.349L459.349 137.296Z" fill="#FDDBD8"/>
<path d="M733.686 253.108H586.245V259.171H733.686V253.108Z" fill="#F76C5E"/>
<path opacity="0.2" d="M733.686 253.108H705.014V259.171H733.686V253.108Z" fill="black"/>
<path d="M666.263 192.161H622.262V253.108H666.263V192.161Z" fill="#586BA4"/>
<path opacity="0.4" d="M666.263 192.161H622.262V253.108H666.263V192.161Z" fill="#FDDBD8"/>
<path d="M634.241 192.161H622.262V253.108H634.241V192.161Z" fill="#586BA4"/>
<path d="M662.913 197.862H638.126V253.113H662.913V197.862Z" fill="#586BA4"/>
<path opacity="0.4" d="M662.913 197.862H638.126V253.113H662.913V197.862Z" fill="#FDDBD8"/>
<path d="M644.878 197.856H638.126V253.108H644.878V197.856Z" fill="#586BA4"/>
<path d="M655.458 253.108H692.132L684.597 200.396H649.65L655.458 253.108Z" fill="#586BA4"/>
<path opacity="0.4" d="M655.458 253.108H692.132L684.597 200.396H649.65L655.458 253.108Z" fill="#FDDBD8"/>
<path d="M665.405 253.108H655.412L649.65 200.396H659.643L665.405 253.108Z" fill="#586BA4"/>
<path d="M264.828 243.474H315.845V169.502H264.828V243.474Z" fill="#F76C5E"/>
<g opacity="0.5">
<path opacity="0.5" d="M264.828 243.474H315.845V169.502H264.828V243.474Z" fill="#FDDBD8"/>
</g>
<path d="M262.025 243.474H313.042V169.502H262.025V243.474Z" fill="#FDDBD8"/>
<path d="M268.368 235.28H306.843V177.293H268.368V235.28Z" fill="#F76C5E"/>
<g opacity="0.7">
<path opacity="0.7" d="M262.099 243.272H313.117V169.301H262.099V243.272Z" fill="#FDDBD8"/>
</g>
<path d="M281.187 224.517H294.023V188.056H281.187V224.517Z" fill="#586BA4"/>
<path d="M281.193 209.949C283.635 209.949 285.614 207.969 285.614 205.526C285.614 203.084 283.635 201.104 281.193 201.104C278.752 201.104 276.772 203.084 276.772 205.526C276.772 207.969 278.752 209.949 281.193 209.949Z" fill="#FDDBD8"/>
<path d="M364.906 203.983C370.485 203.983 375.008 199.459 375.008 193.877C375.008 188.296 370.485 183.771 364.906 183.771C359.326 183.771 354.804 188.296 354.804 193.877C354.804 199.459 359.326 203.983 364.906 203.983Z" fill="#324376"/>
<path d="M356.168 198.933C357.28 200.859 358.995 202.364 361.049 203.215C363.103 204.066 365.38 204.215 367.528 203.638C369.675 203.062 371.572 201.793 372.924 200.028C374.277 198.263 375.009 196.101 375.008 193.877C375.004 193.378 374.962 192.879 374.882 192.386C366.547 191.511 360.18 194.493 356.168 198.933Z" fill="#F76C5E"/>
<path opacity="0.15" d="M708.652 509.843V494.589H667.351C666.505 494.211 665.745 493.656 665.129 492.961C664.513 492.265 664.052 491.446 663.776 490.557C663.506 489.669 663.425 488.732 663.546 487.81C663.667 486.889 663.983 486.003 664.473 485.214C670.085 476.208 671.38 465.06 660.961 458.956C652.528 453.987 640.953 457.177 636.279 465.786C632.433 472.863 635.582 479.099 639.197 485.428C639.646 486.216 639.928 487.09 640.02 487.993C640.106 488.896 640.009 489.808 639.727 490.672C639.445 491.534 638.99 492.329 638.38 493.003C637.775 493.678 637.033 494.218 636.204 494.589H595.415V535.001C595.668 535.992 596.146 536.91 596.819 537.68C597.493 538.45 598.339 539.051 599.289 539.434C600.233 539.816 601.258 539.97 602.276 539.882C603.295 539.794 604.28 539.467 605.149 538.928C614.146 533.314 625.296 532.018 631.397 542.447C636.353 550.883 632.687 562.267 624.075 566.942C617.001 570.789 611.325 567.691 604.924 564.219C600.693 561.915 596.347 563.643 595.421 568.163V607.861H624.047V607.953H685.575V607.855H708.64V567.501C708.698 567.357 708.652 509.843 708.652 509.843Z" fill="black"/>
<path d="M708.652 509.843V494.589H667.351C666.505 494.211 665.745 493.656 665.129 492.961C664.513 492.265 664.052 491.446 663.776 490.557C663.506 489.669 663.425 488.732 663.546 487.81C663.667 486.889 663.983 486.003 664.473 485.214C670.085 476.208 671.38 465.06 660.961 458.956C652.528 453.987 640.953 457.177 636.279 465.786C632.433 472.863 635.582 479.099 639.197 485.428C639.646 486.216 639.928 487.09 640.02 487.993C640.106 488.896 640.009 489.808 639.727 490.672C639.445 491.534 638.99 492.329 638.38 493.003C637.775 493.678 637.033 494.218 636.204 494.589H595.415V535.001C595.668 535.992 596.146 536.91 596.819 537.68C597.493 538.45 598.339 539.051 599.289 539.434C600.233 539.816 601.258 539.97 602.276 539.882C603.295 539.794 604.28 539.467 605.149 538.928C614.146 533.314 625.296 532.018 631.397 542.447C636.353 550.883 632.687 562.267 624.075 566.942C617.001 570.789 611.325 567.691 604.924 564.219C600.693 561.915 596.347 563.643 595.421 568.163V607.861H624.047V607.953H685.575V607.855H708.64V567.501C708.698 567.357 708.652 509.843 708.652 509.843Z" fill="#F76C5E"/>
<path d="M631.461 542.377C625.336 531.972 614.192 533.25 605.212 538.865C604.228 539.48 603.1 539.82 601.937 539.851C600.78 539.881 599.634 539.6 598.621 539.036C597.602 538.473 596.762 537.649 596.175 536.648C595.582 535.648 595.277 534.509 595.277 533.348V495.683H555.081C554.193 496.007 553.387 496.522 552.718 497.189C552.05 497.857 551.535 498.663 551.209 499.551C550.884 500.438 550.755 501.386 550.833 502.328C550.912 503.27 551.194 504.184 551.662 505.006C555.282 511.34 558.431 517.571 554.586 524.647C549.912 533.285 538.342 536.452 529.903 531.488C519.496 525.373 520.774 514.213 526.375 505.23C526.889 504.405 527.21 503.475 527.317 502.509C527.424 501.543 527.312 500.565 526.99 499.648C526.669 498.73 526.146 497.897 525.459 497.208C524.773 496.52 523.941 495.995 523.024 495.672H482.731V495.361H482.155V494.67H481.982V607.924H595.196V569.781C595.196 568.643 595.496 567.525 596.06 566.538C596.63 565.551 597.447 564.731 598.431 564.159C599.416 563.588 600.532 563.285 601.666 563.281C602.806 563.277 603.923 563.573 604.913 564.138C611.245 567.754 617.479 570.904 624.547 567.052C633.188 562.393 636.394 550.813 631.461 542.377Z" fill="#F76C5E"/>
<path d="M708.669 493.386L708.819 382.445H595.599V421.101C595.599 426.209 585.186 437.622 580.857 434.921C571.855 429.301 565.54 419.719 559.415 430.125C554.448 438.56 557.637 450.146 566.242 454.816C573.317 458.663 579.297 449.058 585.624 445.453C589.958 442.977 595.599 452.559 595.599 457.546V495.7H635.277C636.233 495.441 637.119 494.964 637.867 494.309C638.616 493.653 639.197 492.836 639.583 491.918C639.963 491 640.124 490.008 640.066 489.017C640.003 488.025 639.715 487.062 639.22 486.199C635.605 479.865 632.451 473.634 636.296 466.557C640.97 457.92 652.54 454.753 660.984 459.717C671.386 465.832 670.108 476.963 664.507 485.969C663.966 486.838 663.638 487.821 663.552 488.841C663.46 489.86 663.615 490.886 664.001 491.835C664.381 492.784 664.979 493.629 665.751 494.302C666.522 494.974 667.443 495.456 668.433 495.706H708.669V493.403V493.386Z" fill="#F76C5E"/>
<path opacity="0.15" d="M708.669 493.386V382.445H595.444V421.101C595.444 426.209 611.659 423.128 605.534 433.533C600.567 441.969 590.568 438.393 599.203 443.075C606.277 446.922 586.51 450.469 592.842 446.852C597.176 444.382 595.467 452.57 595.467 457.557V495.712H635.145C636.1 495.452 636.987 494.976 637.735 494.321C638.483 493.665 639.065 492.847 639.45 491.929C639.83 491.012 639.991 490.02 639.934 489.028C639.87 488.037 639.583 487.073 639.088 486.211C635.473 479.876 632.318 473.646 636.164 466.569C640.838 457.931 652.413 454.764 660.852 459.722C671.254 465.843 669.976 476.997 664.375 485.98C663.834 486.849 663.511 487.833 663.419 488.852C663.333 489.871 663.488 490.896 663.868 491.845C664.254 492.793 664.853 493.638 665.624 494.311C666.39 494.984 667.311 495.466 668.301 495.718H708.698V493.414L708.669 493.386Z" fill="black"/>
<path opacity="0.2" d="M708.652 509.843V494.589H667.351C666.505 494.211 665.745 493.656 665.129 492.961C664.513 492.265 664.053 491.446 663.776 490.557C663.506 489.669 663.425 488.732 663.546 487.81C663.667 486.889 663.983 486.003 664.473 485.214C670.085 476.208 671.38 465.06 660.961 458.956C652.528 453.987 640.953 457.177 636.279 465.786C632.433 472.863 635.582 479.099 639.197 485.428C639.646 486.216 639.928 487.09 640.02 487.993C640.106 488.896 640.009 489.808 639.727 490.672C639.445 491.534 638.99 492.329 638.38 493.003C637.775 493.678 637.033 494.218 636.204 494.589H595.415V535.001C595.668 535.992 596.146 536.91 596.819 537.68C597.493 538.45 598.339 539.051 599.289 539.434C600.233 539.816 601.258 539.97 602.276 539.882C603.295 539.794 604.28 539.467 605.149 538.928C614.146 533.314 625.296 532.018 631.397 542.447C636.353 550.883 632.687 562.267 624.075 566.942C617.001 570.789 611.325 567.691 604.924 564.219C600.693 561.915 596.347 563.643 595.421 568.163V607.861H624.047V607.953H685.575V607.855H708.64L708.652 509.843Z" fill="#FDDBD8"/>
<path d="M542.043 387.455C541.629 383.246 537.818 381.219 533.714 382.923C527.509 385.492 522.011 387.783 515.869 383.574C508.427 378.461 506.164 367.675 511.518 360.414C518.126 351.466 528.211 353.706 535.913 359.717C536.656 360.296 537.526 360.692 538.451 360.871C539.376 361.05 540.331 361.008 541.237 360.749C542.143 360.49 542.974 360.02 543.665 359.379C544.355 358.737 544.884 357.942 545.209 357.057L547.511 335.112L549.043 320.532L549.1 320.019L537.294 318.781L449.799 309.568L445.327 309.09L445.269 309.603L443.853 323.071L441.389 346.513C441.332 346.64 441.257 346.761 441.188 346.882L438.177 375.518C438.226 375.644 438.266 375.773 438.298 375.904L434.447 412.872L434.96 412.93V413.212L448.412 414.652L471.851 417.116C472.661 417.5 473.374 418.062 473.937 418.759C474.502 419.455 474.902 420.27 475.109 421.142C475.316 422.014 475.325 422.921 475.135 423.797C474.944 424.674 474.56 425.495 474.01 426.203C468 433.919 465.761 443.996 474.706 450.607C481.965 455.962 492.879 454.154 497.99 446.714C502.193 440.593 499.902 434.576 497.196 428.426C496.846 427.627 496.674 426.762 496.692 425.89C496.711 425.019 496.919 424.162 497.303 423.379C497.687 422.596 498.236 421.906 498.914 421.357C499.591 420.809 500.38 420.415 501.225 420.203L538.209 424.09L539.804 408.888L542.043 387.455Z" fill="#F76C5E"/>
<path opacity="0.2" d="M542.043 387.455C541.629 383.246 537.818 381.219 533.714 382.923C527.509 385.492 522.011 387.783 515.869 383.574C508.427 378.461 506.164 367.675 511.518 360.414C518.126 351.466 528.211 353.706 535.913 359.717C536.656 360.296 537.526 360.692 538.451 360.871C539.376 361.05 540.331 361.008 541.237 360.749C542.143 360.49 542.974 360.02 543.665 359.379C544.355 358.737 544.884 357.942 545.209 357.057L547.511 335.112L549.043 320.532L549.1 320.019L537.294 318.781L449.799 309.568L445.327 309.09L445.269 309.603L443.853 323.071L441.389 346.513C441.332 346.64 441.257 346.761 441.188 346.882L438.177 375.518C438.226 375.644 438.266 375.773 438.298 375.904L434.447 412.872L434.96 412.93V413.212L448.412 414.652L471.851 417.116C472.661 417.5 473.374 418.062 473.937 418.759C474.502 419.455 474.902 420.27 475.109 421.142C475.316 422.014 475.325 422.921 475.135 423.797C474.944 424.674 474.56 425.495 474.01 426.203C468 433.919 465.761 443.996 474.706 450.607C481.965 455.962 492.879 454.154 497.99 446.714C502.193 440.593 499.902 434.576 497.196 428.426C496.846 427.627 496.674 426.762 496.692 425.89C496.711 425.019 496.919 424.162 497.303 423.379C497.687 422.596 498.236 421.906 498.914 421.357C499.591 420.809 500.38 420.415 501.225 420.203L538.209 424.09L539.804 408.888L542.043 387.455Z" fill="#FDDBD8"/>
<path d="M712.612 383.321C713.021 383.321 713.349 382.991 713.349 382.584C713.349 382.177 713.021 381.847 712.612 381.847C712.204 381.847 711.875 382.177 711.875 382.584C711.875 382.991 712.204 383.321 712.612 383.321Z" fill="#FDDBD8"/>
<path d="M703.442 495.153V494.578H662.141C661.295 494.199 660.535 493.644 659.919 492.948C659.304 492.252 658.843 491.433 658.573 490.545C658.302 489.656 658.221 488.72 658.336 487.799C658.457 486.877 658.774 485.992 659.263 485.203C664.881 476.197 666.171 465.049 655.758 458.945C647.325 453.976 635.743 457.166 631.069 465.774C627.23 472.851 630.378 479.088 633.988 485.416C634.437 486.204 634.719 487.078 634.811 487.981C634.903 488.884 634.805 489.796 634.523 490.66C634.241 491.523 633.786 492.317 633.176 492.992C632.572 493.667 631.829 494.207 631 494.578H590.211V534.99C590.465 535.981 590.942 536.898 591.616 537.669C592.289 538.439 593.13 539.04 594.08 539.422C595.029 539.805 596.054 539.958 597.067 539.871C598.086 539.783 599.07 539.456 599.939 538.917C608.942 533.302 620.086 532.007 626.188 542.435C631.15 550.871 627.483 562.255 618.872 566.931C611.791 570.778 606.122 567.68 599.715 564.207C595.484 561.904 591.144 563.631 590.211 568.152V607.85H618.843V607.942H680.389V607.844H703.454V567.501C703.494 567.357 703.442 495.153 703.442 495.153Z" fill="#F76C5E"/>
<path d="M626.223 542.377C620.104 531.972 608.954 533.25 599.974 538.865C598.99 539.48 597.861 539.82 596.699 539.851C595.542 539.881 594.396 539.6 593.383 539.036C592.364 538.473 591.524 537.649 590.937 536.648C590.344 535.648 590.039 534.509 590.039 533.348V495.683H549.877C548.99 496.007 548.183 496.522 547.514 497.189C546.846 497.857 546.331 498.663 546.005 499.551C545.68 500.438 545.552 501.386 545.63 502.328C545.708 503.27 545.991 504.184 546.458 505.006C550.073 511.34 553.222 517.571 549.382 524.647C544.708 533.285 533.132 536.452 524.694 531.488C514.292 525.373 515.564 514.213 521.171 505.23C521.684 504.405 522.004 503.474 522.11 502.508C522.216 501.542 522.103 500.564 521.782 499.647C521.459 498.73 520.936 497.897 520.249 497.208C519.563 496.521 518.731 495.995 517.815 495.672H477.521V495.361H476.946V494.67H476.779V607.924H590.016V569.781C590.016 568.643 590.315 567.525 590.885 566.538C591.449 565.551 592.266 564.731 593.251 564.16C594.235 563.589 595.358 563.286 596.491 563.282C597.631 563.278 598.748 563.573 599.738 564.138C606.07 567.754 612.298 570.904 619.373 567.052C628.007 562.393 631.19 550.813 626.223 542.377Z" fill="#F76C5E"/>
<path d="M703.414 493.386V382.445H590.188V421.101C590.188 422.261 589.883 423.401 589.29 424.401C588.703 425.402 587.863 426.226 586.844 426.789C585.831 427.352 584.685 427.633 583.528 427.603C582.366 427.573 581.237 427.233 580.253 426.618C571.25 421.003 560.106 419.708 554.005 430.13C549.043 438.566 552.232 450.152 560.831 454.822C567.912 458.669 574.14 455.524 580.466 451.908C581.456 451.343 582.573 451.049 583.713 451.052C584.847 451.056 585.969 451.359 586.953 451.93C587.938 452.501 588.755 453.321 589.319 454.308C589.889 455.295 590.188 456.413 590.188 457.551V495.706H629.866C630.822 495.446 631.708 494.97 632.456 494.315C633.205 493.659 633.786 492.841 634.172 491.923C634.552 491.006 634.713 490.014 634.655 489.022C634.592 488.031 634.304 487.067 633.809 486.205C630.194 479.871 627.04 473.64 630.885 466.563C635.559 457.926 647.135 454.759 655.574 459.722C665.975 465.838 664.697 476.969 659.096 485.975C658.555 486.843 658.233 487.828 658.141 488.846C658.054 489.865 658.21 490.89 658.59 491.839C658.976 492.787 659.574 493.633 660.346 494.305C661.111 494.978 662.032 495.46 663.022 495.712H703.414V493.409V493.386Z" fill="#F76C5E"/>
<path d="M538.278 387.225C537.864 383.016 534.053 380.989 529.949 382.693C523.744 385.261 518.247 387.553 512.105 383.344C504.668 378.23 502.405 367.445 507.759 360.184C514.367 351.235 524.452 353.475 532.154 359.487C532.897 360.066 533.768 360.461 534.693 360.64C535.618 360.819 536.573 360.776 537.479 360.517C538.385 360.257 539.217 359.786 539.907 359.144C540.597 358.502 541.125 357.706 541.45 356.821L543.753 334.882L545.29 320.302L545.341 319.789L533.541 318.545L446.046 309.332L441.579 308.86L441.522 309.372L440.106 322.835L437.642 346.283C437.579 346.41 437.51 346.531 437.435 346.652L434.43 375.288C434.47 375.415 434.516 375.541 434.551 375.674L430.665 412.659L431.178 412.717V412.999L444.636 414.416L468.075 416.903C468.884 417.288 469.597 417.85 470.16 418.547C470.723 419.244 471.123 420.058 471.329 420.93C471.536 421.803 471.544 422.709 471.353 423.585C471.163 424.461 470.778 425.283 470.228 425.99C464.224 433.706 461.979 443.783 470.93 450.394C478.183 455.749 489.097 453.941 494.214 446.495C498.411 440.38 496.125 434.363 493.42 428.213C493.069 427.415 492.896 426.549 492.914 425.677C492.932 424.805 493.14 423.948 493.524 423.164C493.908 422.381 494.458 421.691 495.136 421.143C495.814 420.594 496.603 420.201 497.449 419.99L534.428 423.877L536.022 408.675L538.278 387.225Z" fill="#F76C5E"/>
<path opacity="0.5" d="M703.443 494.589H662.141C661.295 494.211 660.535 493.655 659.919 492.959C659.304 492.264 658.843 491.444 658.573 490.556C658.302 489.668 658.221 488.732 658.336 487.81C658.457 486.889 658.774 486.004 659.263 485.214C664.881 476.208 666.171 465.06 655.758 458.956C647.325 453.987 635.743 457.177 631.069 465.786C627.23 472.863 630.378 479.099 633.988 485.428C634.437 486.216 634.719 487.089 634.811 487.992C634.903 488.895 634.805 489.808 634.523 490.671C634.241 491.534 633.786 492.328 633.176 493.003C632.572 493.678 631.829 494.218 631 494.589H590.211V535.001C590.465 535.992 590.942 536.91 591.616 537.68C592.289 538.45 593.13 539.051 594.08 539.434C595.029 539.817 596.054 539.97 597.067 539.882C598.086 539.794 599.07 539.468 599.939 538.928C608.942 533.314 620.086 532.018 626.188 542.447C631.15 550.883 627.483 562.267 618.872 566.942C611.792 570.789 606.122 567.691 599.715 564.219C595.484 561.915 591.144 563.643 590.211 568.163V607.861H618.843V607.953H680.389V607.855H703.454L703.443 494.589Z" fill="#FDDBD8"/>
<path opacity="0.5" d="M538.278 387.225C537.864 383.016 534.053 380.989 529.949 382.693C523.744 385.261 518.247 387.553 512.105 383.344C504.668 378.23 502.405 367.445 507.759 360.184C514.367 351.235 524.452 353.475 532.154 359.487C532.897 360.066 533.768 360.461 534.693 360.64C535.618 360.819 536.573 360.776 537.479 360.517C538.385 360.257 539.217 359.786 539.907 359.144C540.597 358.502 541.125 357.706 541.45 356.821L543.753 334.882L545.29 320.302L545.341 319.789L533.541 318.545L446.046 309.332L441.579 308.86L441.522 309.372L440.106 322.835L437.642 346.283C437.579 346.41 437.51 346.531 437.435 346.652L434.43 375.288C434.47 375.415 434.516 375.541 434.551 375.674L430.665 412.659L431.178 412.717V412.999L444.636 414.416L468.075 416.903C468.884 417.288 469.597 417.85 470.16 418.547C470.723 419.244 471.123 420.058 471.329 420.93C471.536 421.803 471.544 422.709 471.353 423.585C471.163 424.461 470.778 425.283 470.228 425.99C464.224 433.706 461.979 443.783 470.93 450.394C478.183 455.749 489.097 453.941 494.214 446.495C498.411 440.38 496.125 434.363 493.42 428.213C493.069 427.415 492.896 426.549 492.914 425.677C492.932 424.805 493.14 423.948 493.524 423.164C493.908 422.381 494.458 421.691 495.136 421.143C495.814 420.594 496.603 420.201 497.449 419.99L534.428 423.877L536.022 408.675L538.278 387.225Z" fill="#FDDBD8"/>
<path d="M392.168 209.788C394.47 213.381 394.735 221.039 393.135 230.241C391.408 240.03 388.984 244.539 395.27 252.474C398.724 256.816 395.098 258.584 394.695 262.229C394.292 265.874 392.795 269.611 389.779 271.695C387.689 273.147 383.211 274.603 380.667 274.678C377.788 274.765 374.813 274.304 372.389 272.755C369.35 270.814 367.525 267.354 366.794 263.818C365.067 255.515 368.676 247.171 371.37 239.132C375.434 226.999 377.552 214.319 379.648 201.703" fill="#324376"/>
<path d="M389.635 266.185C394.06 266.185 397.647 262.596 397.647 258.169C397.647 253.742 394.06 250.154 389.635 250.154C385.209 250.154 381.622 253.742 381.622 258.169C381.622 262.596 385.209 266.185 389.635 266.185Z" fill="#324376"/>
<path d="M349.266 275.686C360.031 275.686 368.757 266.956 368.757 256.188C368.757 245.42 360.031 236.691 349.266 236.691C338.502 236.691 329.776 245.42 329.776 256.188C329.776 266.956 338.502 275.686 349.266 275.686Z" fill="#324376"/>
<path d="M349.191 574.198C349.792 576.069 350.04 578.039 349.922 580.002L349.98 596.333C349.867 599.178 349.077 601.959 347.677 604.441L347.338 605.017C346.934 605.731 346.349 606.324 345.642 606.744C344.934 607.159 344.129 607.378 343.308 607.383H338.634C337.59 607.378 336.577 607.026 335.752 606.387C334.927 605.742 334.338 604.85 334.075 603.836C333.464 601.423 333.388 598.907 333.851 596.46L337.788 579C338.066 577.371 338.539 575.786 339.199 574.273L349.214 574.215L349.191 574.198Z" fill="#F76C5E"/>
<path d="M412.464 535.853L413.42 566.315C413.42 569.194 414.156 572.229 415.279 573.749L428.904 597.456L425.755 601.786L413.425 595.648L402.454 575.833C402.506 572.453 402.12 570.426 401.55 565.866L396.26 532.289L412.464 535.853Z" fill="#FC9D9D"/>
<path opacity="0.15" d="M413.362 576.789C411.879 574.228 410.796 571.455 410.15 568.566L409.574 564.72C409.529 564.317 409.348 563.942 409.062 563.655C408.775 563.368 408.4 563.187 407.997 563.142L401.165 563.401L400.727 560.718H413.258L413.431 566.43C413.483 568.514 413.88 571.837 415.285 573.858L428.91 597.565L426.999 600.778L413.362 576.789Z" fill="black"/>
<path d="M435.316 601.452L428.841 597.508C426.538 597.888 424.177 597.657 421.993 596.834C419.808 596.016 417.878 594.634 416.396 592.832L402.362 575.833C399.822 581.258 398.924 587.304 399.777 593.235L401.804 607.308H403.438L403.887 592.838C403.901 592.607 403.982 592.389 404.123 592.204C404.263 592.02 404.455 591.882 404.674 591.813C404.893 591.738 405.129 591.732 405.351 591.795C405.573 591.859 405.771 591.985 405.919 592.164L414.473 602.633C415.669 604.107 417.178 605.299 418.892 606.116C420.606 606.934 422.48 607.36 424.38 607.366H437.717C437.959 607.366 438.197 607.308 438.41 607.193C438.624 607.078 438.806 606.917 438.94 606.715C439.074 606.514 439.156 606.283 439.178 606.042C439.201 605.8 439.163 605.558 439.069 605.333C438.357 603.612 437.015 602.224 435.316 601.452Z" fill="#F76C5E"/>
<path d="M349.813 566.822C349.12 572.689 348.82 578.597 348.915 584.505L349.024 591.548C348.977 593.045 348.349 594.462 347.275 595.504C346.2 596.54 344.764 597.122 343.268 597.122H342.324C341.505 597.116 340.696 596.938 339.951 596.598C339.207 596.258 338.543 595.763 338.005 595.147C337.468 594.525 337.068 593.799 336.833 593.016C336.598 592.227 336.533 591.404 336.643 590.592L338.272 582.26C339.108 578.016 339.412 573.685 339.176 569.367L337.598 540.926L352.288 541.157L349.813 566.822Z" fill="#FC9D9D"/>
<path d="M404.215 338.394L406.886 374.361C408.348 390.864 409.816 408.369 410.265 424.919L413.247 560.718H400.716L371.808 373.388C371.777 372.802 371.515 372.252 371.08 371.86C370.644 371.467 370.071 371.264 369.485 371.294C368.9 371.325 368.35 371.587 367.958 372.023C367.565 372.458 367.362 373.032 367.393 373.618L350.4 560.718H338.698L331.134 420.307C329.945 395.758 332.258 371.164 338.001 347.268L340.194 338.262L404.215 338.394Z" fill="#324376"/>
<path opacity="0.15" d="M350.4 560.724C350.4 560.724 349.307 571.664 349.14 574.083V574.14C348.915 577.595 348.858 581.01 348.915 584.448L349.024 591.485C348.98 592.924 348.391 594.295 347.378 595.32C346.364 596.339 345.001 596.943 343.562 597.001C346.261 594.916 346.037 591.542 346.1 589.008L345.899 565.399C345.901 564.91 345.734 564.435 345.425 564.055C345.117 563.675 344.686 563.413 344.206 563.315L338.796 562.232L338.698 560.729L350.4 560.724Z" fill="black"/>
<path opacity="0.2" d="M413.247 560.718H409.097L398.332 371.315C394.954 345.552 382.06 344.009 382.06 338.377L340.073 338.268V338.21L382.06 338.319L395.742 338.377H395.909L405.09 351.834C405.09 351.834 409.764 408.358 410.213 424.913L413.247 560.718Z" fill="black"/>
<path opacity="0.2" d="M369.862 371.315C369.549 371.305 369.238 371.361 368.947 371.478C368.657 371.594 368.394 371.77 368.175 371.994C367.942 372.2 367.752 372.45 367.617 372.729C367.482 373.009 367.404 373.313 367.387 373.624L350.4 560.718H346.526L356.651 383.937C356.821 380.542 358.285 377.34 360.742 374.992C363.2 372.644 366.464 371.328 369.862 371.315Z" fill="black"/>
<path opacity="0.15" d="M369.367 317.802C369.367 317.802 367.416 314.347 364.509 297.648C364.186 295.777 363.11 290.162 363.11 290.162C360.117 287.922 356.203 284.98 353.831 283.252C353.712 283.163 353.568 283.114 353.419 283.116C353.271 283.118 353.127 283.169 353.011 283.261C352.894 283.354 352.812 283.482 352.778 283.627C352.742 283.771 352.757 283.923 352.818 284.059L361.936 315.223C362.448 316.536 369.367 317.802 369.367 317.802Z" fill="black"/>
<path d="M339.556 257.755L358.039 253.989L388.156 254.323L401.349 257.616C408.256 259.81 408.607 265.799 408.498 273.049L407.347 282.262L410.225 292.161C411.912 298.564 409.719 302.272 405.281 307.449C403.882 309.079 403.151 309.752 402.581 312.844L405.114 351.857L337.057 351.437C338.318 333.131 332.752 304.76 331.946 300.504C328.751 283.563 328.844 272.669 328.844 272.669C328.487 265.736 332.982 259.275 339.556 257.755Z" fill="#586BA4"/>
<path d="M396.208 330.39L393.382 328.628L385.571 342.143L388.374 343.047L396.208 330.39Z" fill="#F76C5E"/>
<path d="M360.22 227.034L359.587 249.82C359.55 250.718 359.23 251.582 358.673 252.287C358.116 252.992 357.35 253.503 356.485 253.747L353.888 254.518L359.84 258.146C363.294 260.281 367.267 261.428 371.326 261.462C375.386 261.495 379.377 260.414 382.865 258.336L389.658 254.651L385.053 253.689C384.257 253.482 383.54 253.043 382.994 252.428C382.448 251.813 382.096 251.05 381.985 250.234L380.367 223.032L360.22 227.034Z" fill="#FC9D9D"/>
<path d="M375.946 245.437L374.887 245.368C373.076 245.223 371.312 244.722 369.694 243.893C368.077 243.064 366.639 241.925 365.463 240.539C364.286 239.154 363.394 237.55 362.839 235.82C362.283 234.089 362.074 232.266 362.224 230.454L363.83 211.106C363.879 210.501 364.047 209.911 364.325 209.372C364.603 208.832 364.985 208.352 365.449 207.96C365.912 207.569 366.449 207.272 367.028 207.089C367.606 206.906 368.215 206.838 368.82 206.891L386.924 208.348C387.707 208.413 388.47 208.632 389.169 208.993C389.868 209.353 390.489 209.847 390.997 210.448C391.504 211.049 391.889 211.743 392.128 212.493C392.368 213.242 392.458 214.031 392.392 214.815L390.895 232.792C390.562 236.441 388.807 239.812 386.01 242.178C383.213 244.543 379.599 245.714 375.946 245.437Z" fill="#FC9D9D"/>
<path d="M377.989 225.55C378.092 224.729 377.51 223.981 376.69 223.878C375.87 223.775 375.122 224.357 375.019 225.177C374.916 225.997 375.497 226.746 376.318 226.849C377.137 226.952 377.886 226.37 377.989 225.55Z" fill="black"/>
<path d="M377.161 225.445C377.333 225.445 377.472 225.305 377.472 225.134C377.472 224.962 377.333 224.823 377.161 224.823C376.989 224.823 376.85 224.962 376.85 225.134C376.85 225.305 376.989 225.445 377.161 225.445Z" fill="#FDDBD8"/>
<path d="M389.559 227.007C389.662 226.187 389.08 225.438 388.26 225.335C387.441 225.233 386.692 225.814 386.589 226.635C386.486 227.455 387.068 228.203 387.888 228.306C388.708 228.409 389.456 227.828 389.559 227.007Z" fill="black"/>
<path d="M388.737 226.838C388.908 226.838 389.048 226.699 389.048 226.527C389.048 226.355 388.908 226.216 388.737 226.216C388.565 226.216 388.426 226.355 388.426 226.527C388.426 226.699 388.565 226.838 388.737 226.838Z" fill="#FDDBD8"/>
<path opacity="0.2" d="M382.215 233.65L380.212 233.587C380.104 233.565 380.003 233.514 379.924 233.437C379.845 233.361 379.789 233.263 379.763 233.155C379.78 233.045 379.831 232.942 379.908 232.862C379.985 232.782 380.085 232.727 380.195 232.706L382.198 232.769C382.317 232.771 382.436 232.75 382.547 232.706C382.658 232.663 382.76 232.598 382.846 232.515C382.932 232.432 383.001 232.333 383.049 232.223C383.097 232.114 383.122 231.996 383.124 231.877C383.116 231.632 383.019 231.4 382.852 231.222C382.685 231.044 382.458 230.933 382.215 230.909C382.105 230.892 382.003 230.842 381.923 230.764C381.842 230.687 381.787 230.587 381.766 230.477C381.788 230.368 381.841 230.268 381.919 230.188C381.996 230.108 382.095 230.053 382.203 230.028C382.675 230.051 383.12 230.256 383.442 230.602C383.765 230.947 383.94 231.404 383.93 231.877C383.957 232.111 383.931 232.348 383.854 232.571C383.778 232.794 383.654 232.998 383.49 233.168C383.327 233.337 383.127 233.468 382.907 233.551C382.686 233.635 382.45 233.669 382.215 233.65Z" fill="black"/>
<path opacity="0.15" d="M361.544 231.18L363.645 231.445L360.859 235.625L361.544 231.18Z" fill="black"/>
<path d="M382.474 235.516C382.518 235.523 382.56 235.541 382.595 235.568C382.631 235.594 382.659 235.629 382.678 235.669C382.698 235.709 382.707 235.754 382.705 235.798C382.704 235.842 382.692 235.886 382.67 235.925C382.224 236.598 381.597 237.131 380.861 237.464C380.126 237.796 379.311 237.914 378.511 237.804C377.711 237.694 376.958 237.36 376.34 236.841C375.721 236.323 375.262 235.64 375.014 234.871C374.979 234.675 375.066 234.497 375.313 234.531L382.474 235.516Z" fill="#FDDBD8"/>
<path d="M353.929 254.61C353.929 265.448 361.867 274.189 371.652 274.189C381.438 274.189 389.37 265.402 389.37 254.564L385.916 253.856L353.929 254.61Z" fill="#FC9D9D"/>
<path d="M371.652 275.3C382.014 275.3 390.475 266.214 390.475 254.777L388.265 254.253V254.57C388.265 264.78 380.782 273.089 371.652 273.089C362.523 273.089 355.04 264.78 355.04 254.57V254.288L352.824 254.927C353.002 266.196 361.377 275.3 371.652 275.3Z" fill="#F76C5E"/>
<path d="M371.652 275.3C382.014 275.3 390.475 266.214 390.475 254.777L388.265 254.253V254.57C388.265 264.78 380.782 273.089 371.652 273.089C362.523 273.089 355.04 264.78 355.04 254.57V254.288L352.824 254.743C353.002 266.035 361.377 275.3 371.652 275.3Z" fill="#F76C5E"/>
<path d="M371.652 275.3C382.014 275.3 390.475 266.214 390.475 254.777L388.265 254.253V254.57C388.265 264.78 380.782 273.089 371.652 273.089C362.523 273.089 355.04 264.78 355.04 254.57V254.288L352.824 254.743C353.002 266.035 361.377 275.3 371.652 275.3Z" fill="#F76C5E"/>
<path d="M342.497 237.917C342.497 237.917 354.504 235.539 352.254 217.233L369.24 208.095C369.24 208.095 366.132 208.377 365.246 215.857C364.463 222.439 365.579 231.629 364.054 239.852C363.628 242.155 361.176 247.666 357.901 250.096C356.485 251.15 354.038 251.248 354.038 251.248L345.231 252.013L342.497 237.917Z" fill="#324376"/>
<path d="M391.776 203.096C389.999 202.624 388.114 202.777 386.437 203.531C384.759 204.285 383.393 205.594 382.566 207.237C381.601 206.056 380.223 205.287 378.711 205.085C377.2 204.883 375.668 205.263 374.427 206.148C373.609 205.236 372.501 204.635 371.29 204.45C369.906 204.257 368.502 204.611 367.376 205.438C366.251 206.266 365.492 207.5 365.263 208.878C365.156 209.58 365.191 210.297 365.366 210.985C365.541 211.673 365.853 212.319 366.283 212.884C366.712 213.45 367.251 213.924 367.867 214.277C368.483 214.63 369.163 214.856 369.868 214.941C370.642 215.036 371.428 214.962 372.17 214.722C372.396 214.646 372.639 214.637 372.869 214.698C373.099 214.758 373.307 214.885 373.465 215.062C374.502 216.23 375.952 216.949 377.508 217.067C379.065 217.185 380.606 216.693 381.806 215.696C381.936 215.593 382.084 215.518 382.243 215.473C382.402 215.428 382.568 215.415 382.731 215.435C382.895 215.455 383.054 215.507 383.197 215.588C383.341 215.67 383.466 215.779 383.568 215.909C384.367 216.89 385.387 217.667 386.545 218.178C387.703 218.689 388.965 218.918 390.228 218.847C391.491 218.776 392.72 218.407 393.813 217.77C394.906 217.132 395.833 216.245 396.517 215.181C397.202 214.116 397.625 212.905 397.751 211.646C397.878 210.386 397.704 209.115 397.245 207.936C396.786 206.756 396.054 205.702 395.11 204.86C394.165 204.018 393.034 203.412 391.811 203.091L391.776 203.096Z" fill="#324376"/>
<path d="M378.663 194.66C362.022 191.205 352.254 202.59 352 212.557C351.828 219.381 353.647 224.88 358.81 228.623C359.961 229.447 361.521 216.306 367.548 210.467C368.48 209.568 369.502 208.767 370.599 208.077C371.715 209.193 373.136 209.953 374.683 210.264C376.23 210.574 377.834 210.42 379.294 209.822C380.754 209.223 382.004 208.207 382.889 206.899C383.773 205.592 384.252 204.053 384.264 202.475C384.31 198.841 382.215 195.398 378.663 194.66Z" fill="#324376"/>
<path d="M397.699 209.909C397.699 209.909 397.124 205.302 392.68 201.3C388.226 197.326 382.606 194.902 376.66 194.39L384.949 210.513L397.699 209.909Z" fill="#324376"/>
<path opacity="0.15" d="M404.002 335.256L369.384 313.72L360.842 288.256C360.83 288.224 360.824 288.189 360.825 288.154C360.826 288.119 360.833 288.085 360.848 288.054C360.862 288.021 360.882 287.993 360.907 287.969C360.932 287.945 360.962 287.926 360.995 287.914C361.027 287.901 361.062 287.895 361.097 287.897C361.132 287.897 361.166 287.905 361.198 287.919C361.229 287.933 361.258 287.954 361.282 287.979C361.306 288.004 361.325 288.034 361.337 288.066L373.264 315.315L404.002 334.789V335.256Z" fill="black"/>
<path opacity="0.15" d="M328.883 275.346L348.455 321.937C349.646 324.874 351.459 327.517 353.77 329.686C356.08 331.855 358.832 333.498 361.838 334.502L404.895 348.466L405.113 351.84L357.912 338.423C355.835 337.756 353.937 336.623 352.362 335.111C350.789 333.599 349.58 331.749 348.829 329.699L328.883 275.346Z" fill="black"/>
<path d="M466.043 308.169C466.043 308.169 474.464 310.892 474.988 311.244C475.512 311.595 480.646 318.931 480.646 318.931L479.052 319.351C477.457 319.766 472.277 314.169 472.144 313.841C472.012 313.512 465.893 312.303 465.127 312.159C464.362 312.015 460.022 313.092 459.458 314.463C458.893 315.833 463.216 318.396 464.477 318.902C466.025 319.541 465.197 321.879 465.197 321.879C463.562 321.994 459.072 320.359 457.184 319.219C455.296 318.079 450.852 315.332 449.269 315.188C447.686 315.044 432.576 316.34 432.576 316.34L396.537 317.941C395.157 318.003 393.784 317.721 392.541 317.12C391.298 316.519 390.224 315.618 389.415 314.499C388.607 313.379 388.089 312.076 387.91 310.706C387.73 309.337 387.893 307.945 388.385 306.654L400.157 275.755L408.383 267.659L414.064 303.631C414.064 303.631 464.891 305.151 465.674 305.249C466.457 305.347 482.793 310.299 483.052 310.725C483.311 311.152 480.75 313.351 475.633 311.998L474.988 311.255L466.043 308.169Z" fill="#FC9D9D"/>
<path d="M471.5 306.919L479.559 306.251C479.527 306.809 479.344 307.347 479.03 307.808C478.716 308.27 478.282 308.637 477.775 308.871L471.5 306.919Z" fill="#FC9D9D"/>
<path d="M467.586 305.767C467.586 305.767 474.131 304.754 474.493 304.789C475.006 304.829 475.944 305.94 474.753 306.66L471.483 306.931L467.586 305.767Z" fill="#FC9D9D"/>
<path opacity="0.15" d="M475.616 311.981C475.207 311.513 474.689 311.153 474.108 310.933L467.862 308.555L474.378 310.455C474.695 310.548 474.99 310.703 475.247 310.91C475.504 311.118 475.717 311.374 475.875 311.664L476.134 312.136L475.616 311.981Z" fill="black"/>
<path opacity="0.15" d="M468.737 306.482L479.277 310.144C479.472 310.046 479.651 309.918 479.806 309.764L468.737 306.482Z" fill="black"/>
<path opacity="0.15" d="M476.491 307.34L472.231 307.512L472.594 307.622L476.399 307.708C476.452 307.592 476.483 307.467 476.491 307.34Z" fill="black"/>
<path d="M439.202 304.368L415.383 303.217L408.359 267.67L400.134 275.767L388.363 306.66C387.871 307.95 387.707 309.343 387.887 310.713C388.067 312.083 388.584 313.386 389.392 314.506C390.201 315.626 391.275 316.527 392.518 317.129C393.761 317.73 395.134 318.013 396.514 317.952C396.514 317.952 432.398 316.541 436.623 316.012L439.202 304.368Z" fill="#586BA4"/>
<path d="M439.225 304.368L436.64 315.994L434.447 316.19L436.836 304.247L439.225 304.368Z" fill="#F76C5E"/>
<path opacity="0.15" d="M462.693 321.401C459.337 319.927 452.447 313.973 450.668 313.593C448.89 313.213 437.314 312.983 437.314 312.983L436.64 315.994C436.64 315.994 448.475 314.975 449.304 315.182C451.827 316.099 454.233 317.31 456.471 318.793C458.36 320.05 460.472 320.936 462.693 321.401Z" fill="black"/>
<path d="M426.124 348.103L432.317 349.024C432.682 349.078 433.025 349.227 433.314 349.455C433.603 349.683 433.827 349.983 433.964 350.326L434.58 351.886L431.195 352.289L426.124 348.103Z" fill="#FC9D9D"/>
<path d="M396.208 330.39L422.192 346.617C422.34 346.717 422.501 346.797 422.67 346.853L431.627 350.078C432.556 350.429 433.421 350.931 434.188 351.564L443.047 359.251C443.235 359.407 443.355 359.631 443.38 359.874C443.404 360.118 443.332 360.361 443.179 360.552C443.107 360.656 443.015 360.745 442.908 360.812C442.801 360.88 442.682 360.927 442.557 360.948C442.432 360.97 442.304 360.966 442.181 360.937C442.058 360.909 441.941 360.856 441.838 360.783L432.974 354.448L440.382 363.086C440.559 363.291 440.648 363.558 440.629 363.829C440.612 364.099 440.487 364.352 440.284 364.531C440.092 364.709 439.841 364.808 439.579 364.808C439.318 364.808 439.065 364.709 438.874 364.531L430.757 357.132L438.051 363.8C438.237 363.98 438.35 364.223 438.368 364.481C438.386 364.739 438.308 364.995 438.148 365.199C438.072 365.306 437.975 365.397 437.863 365.465C437.751 365.534 437.627 365.58 437.497 365.599C437.367 365.62 437.234 365.613 437.107 365.581C436.98 365.549 436.86 365.491 436.755 365.412L428.91 359.706L435.673 364.658C435.845 364.79 435.959 364.983 435.993 365.197C436.027 365.411 435.979 365.63 435.857 365.81C435.733 365.989 435.543 366.114 435.329 366.158C435.115 366.202 434.892 366.162 434.706 366.046L416.177 354.137L388.328 343.058L396.208 330.39Z" fill="#FC9D9D"/>
<g opacity="0.15">
<path opacity="0.15" d="M438.005 364.157C438.07 364.179 438.139 364.182 438.205 364.166C438.272 364.149 438.332 364.114 438.379 364.065C438.409 364.031 438.432 363.992 438.446 363.95C438.46 363.907 438.465 363.862 438.459 363.817C438.455 363.772 438.44 363.729 438.417 363.691C438.395 363.652 438.364 363.619 438.327 363.593L431.535 357.379C431.464 357.334 431.38 357.316 431.297 357.329C431.215 357.343 431.14 357.386 431.087 357.451C431.034 357.515 431.007 357.598 431.011 357.681C431.015 357.765 431.05 357.844 431.109 357.903L437.907 364.122L438.005 364.157Z" fill="black"/>
</g>
<g opacity="0.15">
<path opacity="0.15" d="M435.65 364.969C435.722 364.994 435.799 364.993 435.87 364.968C435.941 364.943 436.001 364.895 436.042 364.831C436.091 364.759 436.113 364.672 436.104 364.585C436.094 364.498 436.054 364.418 435.99 364.359L429.232 359.401C429.16 359.351 429.071 359.329 428.983 359.338C428.896 359.348 428.815 359.388 428.754 359.452C428.705 359.524 428.683 359.611 428.692 359.698C428.702 359.785 428.742 359.865 428.806 359.925L435.57 364.883C435.604 364.952 435.604 364.952 435.65 364.969Z" fill="black"/>
</g>
<path opacity="0.15" d="M435.955 365.827C435.83 366.005 435.64 366.129 435.426 366.173C435.213 366.217 434.99 366.178 434.804 366.063L416.269 354.138L388.374 343.053L405.067 349.704L418.059 353.418L435.955 365.827Z" fill="black"/>
<path d="M364.86 230.961L340.897 247.925C340.897 247.925 341.248 249.255 341.766 251.461C340.971 252.08 340.343 252.888 339.94 253.812C339.537 254.735 339.371 255.745 339.457 256.75C339.543 257.754 339.88 258.721 340.434 259.562C340.989 260.403 341.746 261.092 342.635 261.567C343.056 261.798 343.418 262.123 343.693 262.516C343.969 262.909 344.15 263.361 344.224 263.835C344.258 264.158 344.31 264.469 344.373 264.774C344.373 264.832 344.373 264.883 344.373 264.935C344.874 267.148 346.139 269.113 347.946 270.485C349.753 271.857 351.985 272.547 354.251 272.434C356.516 272.321 358.669 271.413 360.331 269.868C361.992 268.324 363.056 266.242 363.335 263.991C363.335 263.991 366.201 245.841 364.86 230.961Z" fill="#324376"/>
<path opacity="0.15" d="M381.708 244.729C379.746 245.389 377.674 245.667 375.607 245.547L373.932 245.397C373.722 245.387 373.514 245.347 373.316 245.276H373.195C372.89 245.19 372.579 245.161 372.211 245.063C372.09 245.063 371.969 244.977 371.842 244.965C370.161 244.532 368.573 243.794 367.157 242.789C367.071 242.736 366.968 242.717 366.869 242.736C366.77 242.754 366.681 242.808 366.62 242.888C366.558 242.968 366.528 243.068 366.536 243.169C366.544 243.27 366.588 243.364 366.662 243.434C368.5 244.738 370.597 245.633 372.809 246.059C374.761 247.831 377.228 248.93 379.849 249.198C380.562 249.255 381.278 249.255 381.99 249.198L381.708 244.729Z" fill="black"/>
<path d="M394.752 260.697C395.188 260.697 395.541 260.344 395.541 259.908C395.541 259.472 395.188 259.119 394.752 259.119C394.317 259.119 393.964 259.472 393.964 259.908C393.964 260.344 394.317 260.697 394.752 260.697Z" fill="#FDDBD8"/>
<path d="M404.002 280.396C404.438 280.396 404.791 280.043 404.791 279.607C404.791 279.171 404.438 278.819 404.002 278.819C403.567 278.819 403.214 279.171 403.214 279.607C403.214 280.043 403.567 280.396 404.002 280.396Z" fill="#FDDBD8"/>
<path d="M344.903 273.624C345.338 273.624 345.692 273.271 345.692 272.836C345.692 272.4 345.338 272.047 344.903 272.047C344.467 272.047 344.114 272.4 344.114 272.836C344.114 273.271 344.467 273.624 344.903 273.624Z" fill="#FDDBD8"/>
<path d="M387.827 286.327C388.263 286.327 388.616 285.974 388.616 285.538C388.616 285.103 388.263 284.75 387.827 284.75C387.392 284.75 387.039 285.103 387.039 285.538C387.039 285.974 387.392 286.327 387.827 286.327Z" fill="#FDDBD8"/>
<path d="M374.887 303.706C375.323 303.706 375.676 303.353 375.676 302.917C375.676 302.481 375.323 302.128 374.887 302.128C374.452 302.128 374.099 302.481 374.099 302.917C374.099 303.353 374.452 303.706 374.887 303.706Z" fill="#FDDBD8"/>
<path d="M366.99 280.943C367.425 280.943 367.778 280.59 367.778 280.154C367.778 279.719 367.425 279.366 366.99 279.366C366.554 279.366 366.201 279.719 366.201 280.154C366.201 280.59 366.554 280.943 366.99 280.943Z" fill="#FDDBD8"/>
<path d="M357.745 299.698C358.181 299.698 358.534 299.345 358.534 298.909C358.534 298.473 358.181 298.12 357.745 298.12C357.309 298.12 356.957 298.473 356.957 298.909C356.957 299.345 357.309 299.698 357.745 299.698Z" fill="#FDDBD8"/>
<path d="M356.962 321.286C357.397 321.286 357.751 320.933 357.751 320.497C357.751 320.061 357.397 319.708 356.962 319.708C356.527 319.708 356.174 320.061 356.174 320.497C356.174 320.933 356.527 321.286 356.962 321.286Z" fill="#FDDBD8"/>
<path d="M341.075 346.289C341.511 346.289 341.864 345.936 341.864 345.5C341.864 345.064 341.511 344.711 341.075 344.711C340.64 344.711 340.286 345.064 340.286 345.5C340.286 345.936 340.64 346.289 341.075 346.289Z" fill="#FDDBD8"/>
<path d="M362.471 343.047C362.907 343.047 363.26 342.694 363.26 342.258C363.26 341.822 362.907 341.469 362.471 341.469C362.035 341.469 361.682 341.822 361.682 342.258C361.682 342.694 362.035 343.047 362.471 343.047Z" fill="#FDDBD8"/>
<path d="M382.699 349.082C383.134 349.082 383.487 348.729 383.487 348.293C383.487 347.857 383.134 347.504 382.699 347.504C382.263 347.504 381.91 347.857 381.91 348.293C381.91 348.729 382.263 349.082 382.699 349.082Z" fill="#FDDBD8"/>
<path d="M341.864 322.691C342.299 322.691 342.652 322.338 342.652 321.902C342.652 321.466 342.299 321.113 341.864 321.113C341.429 321.113 341.075 321.466 341.075 321.902C341.075 322.338 341.429 322.691 341.864 322.691Z" fill="#FDDBD8"/>
<path d="M338.778 292.8C339.214 292.8 339.567 292.447 339.567 292.011C339.567 291.575 339.214 291.222 338.778 291.222C338.343 291.222 337.99 291.575 337.99 292.011C337.99 292.447 338.343 292.8 338.778 292.8Z" fill="#FDDBD8"/>
<path d="M378.79 328.45C379.225 328.45 379.579 328.097 379.579 327.661C379.579 327.225 379.225 326.872 378.79 326.872C378.354 326.872 378.001 327.225 378.001 327.661C378.001 328.097 378.354 328.45 378.79 328.45Z" fill="#FDDBD8"/>
<path d="M392.582 320.503C393.017 320.503 393.371 320.15 393.371 319.714C393.371 319.278 393.017 318.925 392.582 318.925C392.146 318.925 391.793 319.278 391.793 319.714C391.793 320.15 392.146 320.503 392.582 320.503Z" fill="#FDDBD8"/>
<path d="M401.729 301.27C402.164 301.27 402.517 300.917 402.517 300.481C402.517 300.045 402.164 299.692 401.729 299.692C401.293 299.692 400.94 300.045 400.94 300.481C400.94 300.917 401.293 301.27 401.729 301.27Z" fill="#FDDBD8"/>
<path d="M420.54 305.566C420.976 305.566 421.329 305.213 421.329 304.777C421.329 304.341 420.976 303.988 420.54 303.988C420.104 303.988 419.752 304.341 419.752 304.777C419.752 305.213 420.104 305.566 420.54 305.566Z" fill="#FDDBD8"/>
<path d="M432.427 315.171C432.863 315.171 433.215 314.818 433.215 314.382C433.215 313.946 432.863 313.593 432.427 313.593C431.992 313.593 431.638 313.946 431.638 314.382C431.638 314.818 431.992 315.171 432.427 315.171Z" fill="#FDDBD8"/>
<path d="M404.791 315.171C405.226 315.171 405.58 314.818 405.58 314.382C405.58 313.946 405.226 313.593 404.791 313.593C404.355 313.593 404.002 313.946 404.002 314.382C404.002 314.818 404.355 315.171 404.791 315.171Z" fill="#FDDBD8"/>
<path opacity="0.15" d="M408.469 268.367C408.469 268.367 409.148 270.371 407.318 282.25L410.196 292.074C410.822 294.217 410.913 296.482 410.46 298.669C410.007 300.855 409.025 302.898 407.6 304.616L403.997 308.946C403.112 310.052 402.606 311.412 402.552 312.827C402.455 314.452 402.561 316.083 402.868 317.681L408.527 317.405L434.43 316.19L435.075 312.977L412.712 313.178C411.94 310.685 415.383 303.199 415.383 303.199L408.469 268.367Z" fill="black"/>
<path d="M376.637 236.984C376.759 237.012 376.865 237.088 376.931 237.194C376.998 237.301 377.019 237.429 376.991 237.551C376.963 237.673 376.887 237.779 376.781 237.846C376.675 237.912 376.546 237.934 376.424 237.906C376.302 237.877 376.196 237.802 376.13 237.695C376.063 237.589 376.042 237.46 376.07 237.338C376.098 237.216 376.174 237.11 376.28 237.044C376.387 236.977 376.515 236.956 376.637 236.984Z" fill="#FDDBD8"/>
<path d="M389.595 221.316C388.697 221.288 387.805 221.456 386.979 221.809C386.153 222.161 385.413 222.688 384.811 223.354C383.656 222.792 382.341 222.65 381.093 222.951C380.644 221.937 379.922 221.067 379.006 220.441C378.091 219.814 377.02 219.455 375.912 219.404C374.722 219.351 373.542 219.652 372.523 220.268C371.503 220.885 370.689 221.79 370.182 222.869C369.676 223.948 369.501 225.153 369.678 226.332C369.856 227.511 370.378 228.61 371.18 229.492C371.981 230.374 373.026 230.999 374.182 231.287C375.338 231.577 376.554 231.516 377.676 231.115C378.798 230.713 379.775 229.988 380.486 229.031C381.197 228.074 381.608 226.928 381.668 225.738C381.681 225.068 381.594 224.401 381.409 223.757C382.412 223.564 383.449 223.673 384.391 224.068C383.874 224.842 383.543 225.724 383.423 226.646C383.304 227.568 383.399 228.506 383.701 229.386C384.004 230.265 384.505 231.063 385.167 231.716C385.829 232.37 386.632 232.862 387.515 233.153C388.398 233.445 389.337 233.528 390.257 233.397C391.177 233.265 392.055 232.923 392.821 232.397C393.588 231.87 394.222 231.173 394.675 230.361C395.127 229.548 395.386 228.642 395.431 227.713C395.492 226.094 394.915 224.516 393.823 223.319C392.731 222.121 391.212 221.402 389.595 221.316ZM375.474 230.667C374.443 230.618 373.449 230.264 372.619 229.65C371.789 229.037 371.159 228.19 370.81 227.218C370.46 226.246 370.406 225.192 370.655 224.19C370.905 223.187 371.446 222.281 372.209 221.586C372.973 220.891 373.926 220.439 374.947 220.286C375.968 220.132 377.013 220.285 377.946 220.725C378.88 221.165 379.663 221.873 380.196 222.758C380.728 223.643 380.986 224.666 380.937 225.698C380.87 227.081 380.257 228.381 379.233 229.312C378.209 230.244 376.857 230.731 375.474 230.667ZM389.123 232.637C388.091 232.588 387.097 232.234 386.267 231.62C385.437 231.006 384.807 230.159 384.458 229.187C384.108 228.215 384.054 227.162 384.303 226.159C384.553 225.157 385.094 224.251 385.858 223.556C386.621 222.861 387.574 222.408 388.595 222.255C389.616 222.101 390.661 222.254 391.594 222.694C392.528 223.135 393.311 223.842 393.844 224.727C394.376 225.612 394.634 226.635 394.585 227.667C394.517 229.05 393.903 230.349 392.88 231.28C391.856 232.212 390.505 232.699 389.123 232.637Z" fill="#FDDBD8"/>
<path d="M364.371 230.84C364.371 230.84 358.43 230.339 358.125 224.368C357.82 218.396 365.205 218.448 365.263 224.477L364.854 230.961L364.371 230.84Z" fill="#FC9D9D"/>
<path opacity="0.2" d="M360.439 221.592C360.717 221.438 361.023 221.343 361.339 221.314C361.655 221.284 361.974 221.32 362.275 221.419C362.564 221.541 362.824 221.724 363.036 221.956C363.247 222.188 363.406 222.462 363.501 222.761C363.822 223.514 363.923 224.342 363.795 225.151L363.703 225.761C363.651 226.21 362.834 226.239 362.914 225.681L362.966 225.001C363.059 224.342 362.99 223.67 362.765 223.043C362.631 222.632 362.342 222.289 361.959 222.087C361.539 221.975 361.091 222.028 360.71 222.237C360.614 222.275 360.506 222.277 360.409 222.242C360.312 222.207 360.23 222.137 360.18 222.047C360.17 221.954 360.19 221.859 360.236 221.778C360.283 221.696 360.354 221.631 360.439 221.592Z" fill="black"/>
<path d="M364.26 228.794C364.418 228.162 364.033 227.521 363.401 227.363C362.769 227.205 362.128 227.59 361.97 228.223C361.813 228.855 362.198 229.496 362.83 229.654C363.462 229.812 364.102 229.427 364.26 228.794Z" fill="#F76C5E"/>
<path opacity="0.15" d="M363.358 229.602C363.189 229.578 363.026 229.521 362.88 229.433C362.734 229.345 362.606 229.228 362.506 229.091C362.405 228.952 362.333 228.795 362.295 228.629C362.256 228.463 362.252 228.29 362.281 228.122C362.333 227.894 362.444 227.683 362.603 227.512C362.435 227.6 362.287 227.722 362.169 227.873C362.053 228.022 361.969 228.196 361.924 228.381C361.897 228.536 361.901 228.694 361.936 228.847C361.972 229 362.039 229.144 362.132 229.27C362.225 229.396 362.343 229.502 362.479 229.581C362.614 229.66 362.765 229.71 362.92 229.729C363.165 229.779 363.421 229.74 363.64 229.619C363.53 229.59 363.421 229.562 363.358 229.602Z" fill="black"/>
<path opacity="0.15" d="M362.96 230.546L364.86 230.961L364.48 236.794L362.96 230.546Z" fill="black"/>
<path d="M239.437 241.251H184.81V317.434H239.437V241.251Z" fill="#FDDBD8"/>
<path d="M241.739 241.297H239.408V317.48H241.739V241.297Z" fill="#586BA4"/>
<path d="M232.587 248.564H191.66V310.236H232.587V248.564Z" fill="#586BA4"/>
<path opacity="0.5" d="M241.739 241.297H239.408V317.48H241.739V241.297Z" fill="#FDDBD8"/>
<path opacity="0.7" d="M232.587 248.564H191.66V310.236H232.587V248.564Z" fill="#FDDBD8"/>
<path d="M232.587 259.09H209.654L219.296 302.917H232.587V259.09Z" fill="#586BA4"/>
<path d="M192 265.603L204.284 298.858L192 310.789V265.603Z" fill="#F76C5E"/>
</svg>
